<?xml version="1.0" standalone="no"?>
<!DOCTYPE svg PUBLIC "-//W3C//DTD SVG 20010904//EN"
 "http://www.w3.org/TR/2001/REC-SVG-20010904/DTD/svg10.dtd">
<svg version="1.0" xmlns="http://www.w3.org/2000/svg"
 width="400.000000pt" height="400.000000pt" viewBox="0 0 400.000000 400.000000"
 preserveAspectRatio="xMidYMid meet">
<metadata>
Created by potrace 1.14, written by Peter Selinger 2001-2017
</metadata>
<g transform="translate(0.000000,400.000000) scale(0.100000,-0.100000)"
fill="#000000" stroke="none">
<path d="M504 3979 c-19 -21 -19 -68 -19 -1978 l-1 -1956 23 -22 22 -23 1469
0 c1432 0 1470 0 1494 19 l24 19 -1 1960 c0 1913 0 1960 -19 1981 l-19 21
-1477 0 -1477 0 -19 -21z m2718 -181 l-72 -73 -1150 0 -1150 -1 -72 73 -72 73
1294 0 1295 0 -73 -72z m-2461 -206 c1 -20 1 -41 -1 -47 -1 -5 -1 -363 0 -795
1 -432 1 -792 1 -800 0 -8 -1 -80 0 -160 0 -179 0 -71 -1 -799 l-1 -623 -67
-69 c-37 -38 -69 -69 -73 -69 -4 0 -5 3505 0 3535 0 5 33 -23 71 -63 60 -62
70 -77 71 -110z m2624 -1584 c-1 -970 -3 -1767 -4 -1772 0 -5 -32 22 -70 61
l-70 69 -1 190 c0 104 -1 198 -1 209 0 11 1 661 1 1445 l1 1425 67 67 c37 36
70 67 73 67 3 1 5 -792 4 -1761z m-277 -8 l-3 -1594 -1105 0 -1105 0 -3 1585
c-1 871 0 1589 2 1594 2 7 381 10 1110 10 l1106 0 -2 -1595z m114 -1797 l73
-73 -1295 0 -1294 0 72 73 72 73 1150 -1 1150 0 72 -72z"/>
<path d="M1052 3422 c-14 -22 -16 -160 -17 -1411 0 -762 3 -1398 8 -1413 5
-14 16 -30 25 -34 29 -14 1847 -12 1865 1 9 6 20 23 25 36 4 13 7 647 7 1409
-1 1447 -1 1428 -43 1432 -9 1 -430 2 -936 3 l-918 1 -16 -24z m512 -112 c3
-3 -4 -42 -15 -85 -12 -44 -22 -87 -24 -95 -2 -8 -20 -79 -40 -158 -20 -78
-38 -150 -40 -160 -1 -9 -11 -46 -20 -82 -9 -36 -19 -72 -21 -80 -13 -53 -26
-107 -29 -120 -2 -8 -13 -53 -25 -100 -12 -47 -23 -92 -25 -100 -2 -8 -13 -49
-25 -90 -50 -177 -27 -298 74 -394 75 -71 192 -98 299 -70 28 7 53 14 53 14 1
0 2 -36 1 -81 0 -112 1 -113 165 -119 l131 -5 -141 -118 c-78 -65 -144 -123
-148 -128 -3 -6 -6 -77 -7 -159 l-1 -149 -25 -6 c-14 -4 -27 -6 -29 -5 -1 0
-30 -14 -64 -32 -105 -56 -197 -170 -214 -265 -3 -14 -7 -30 -10 -34 -4 -7
-163 -10 -199 -4 -20 4 -20 12 -20 1312 0 719 4 1311 9 1314 10 8 382 6 390
-1z m1267 1 c2 -14 4 -841 1 -841 -1 0 -18 33 -37 73 -40 81 -58 113 -100 176
-17 24 -35 51 -40 61 -6 9 -17 24 -25 33 -8 9 -26 31 -40 48 -29 37 -151 162
-195 199 -90 77 -216 158 -367 238 l-38 19 420 0 c231 0 420 -3 421 -6z
m-1013 -74 c6 -5 12 -6 12 -1 0 4 5 3 12 -4 7 -7 18 -12 26 -12 27 0 210 -94
303 -155 86 -58 227 -177 270 -230 9 -11 33 -38 52 -60 20 -22 34 -41 33 -43
-2 -1 -25 2 -52 9 -73 16 -210 14 -284 -6 -79 -20 -186 -75 -229 -117 -30 -30
-43 -31 -47 -5 -1 7 -7 32 -14 57 -7 25 -14 52 -16 60 -4 18 -34 138 -39 160
-3 8 -12 44 -20 80 -9 36 -18 72 -20 80 -3 8 -12 47 -20 85 -9 39 -19 77 -22
85 -14 35 -12 40 15 34 15 -4 33 -11 40 -17z m-154 -157 c6 -30 75 -311 80
-325 2 -6 -8 -10 -23 -9 -38 2 -79 -22 -101 -59 -55 -89 10 -195 113 -185 23
3 48 6 56 9 11 3 19 -15 32 -66 9 -38 54 -215 98 -392 45 -177 81 -324 81
-327 0 -3 -31 -6 -70 -6 -49 0 -70 4 -71 13 0 6 -1 55 0 107 0 107 -11 140
-50 151 -29 7 -58 -7 -103 -52 -30 -31 -98 -51 -141 -44 -16 3 -36 6 -43 7 -7
1 -33 19 -56 40 -34 29 -47 49 -55 86 -15 59 -20 33 89 467 50 198 93 368 95
378 15 66 59 236 61 234 2 -1 5 -14 8 -27z m741 -473 c23 -11 65 -56 65 -69 0
-14 2 -22 11 -45 5 -14 5 -23 -1 -23 -5 0 -7 -6 -5 -12 7 -18 -29 -73 -59 -93
-33 -22 -103 -22 -143 -1 -44 22 -65 56 -68 113 -8 108 101 179 200 130z
m-330 -122 c0 -30 -3 -55 -6 -55 -12 0 -49 42 -49 56 0 14 36 53 50 54 3 0 5
-25 5 -55z m590 6 c4 -11 -40 -61 -55 -61 -4 0 -4 90 -1 108 2 7 51 -34 56
-47z m125 -316 c33 -138 42 -211 41 -350 0 -107 -6 -183 -16 -235 -3 -14 -7
-34 -9 -45 -21 -104 -46 -192 -73 -255 -91 -212 -166 -332 -302 -480 -36 -40
-51 -51 -55 -40 -5 14 -94 368 -101 400 -2 8 -24 96 -49 195 l-45 180 45 41
c72 67 56 124 -37 134 l-53 5 -73 290 c-40 160 -73 294 -73 298 0 4 19 -3 43
-16 211 -118 480 -106 662 30 l40 30 18 -51 c10 -28 27 -87 37 -131z m-695
-822 l7 -42 -34 9 c-18 5 -51 11 -72 15 -62 9 -62 9 29 83 l40 33 11 -28 c7
-15 15 -47 19 -70z m-155 -139 c41 -9 84 -18 95 -19 11 -2 20 -4 20 -5 0 -1
16 -3 35 -6 42 -5 49 -12 60 -55 5 -19 27 -108 50 -199 23 -91 45 -181 50
-199 10 -40 6 -51 -19 -51 -25 0 -35 16 -51 73 -13 49 -76 145 -120 184 -35
32 -147 85 -182 88 -14 1 -18 14 -19 71 -1 76 0 134 4 134 1 0 36 -7 77 -16z
m895 -279 c0 -238 -1 -246 -20 -250 -27 -5 -287 -4 -304 1 -9 3 0 19 29 52 23
26 52 58 65 72 49 56 137 195 195 310 17 33 31 60 33 60 1 0 2 -110 2 -245z
m-958 -44 c77 -21 165 -109 185 -187 5 -21 5 -21 -263 -20 -147 1 -270 4 -273
7 -11 11 24 79 61 120 76 84 175 111 290 80z"/>
</g>
</svg>
